<svg xmlns="http://www.w3.org/2000/svg" viewBox="0 0 16 16"><g fill="#1BAADA"><path d="M4.9 11.8c.2-.4.7-.5 1.1-.3.4.2.5.7.3 1.1l-1.2 2.1c-.2.3-.7.5-1.1.2-.4-.2-.5-.7-.3-1.1l1.2-2z" opacity=".15"><animate attributeName="opacity" attributeType="CSS" dur="0.96s" from="1" repeatCount="indefinite" to=".15"/></path><path d="M3.4 9.7c.4-.2.9-.1 1.1.3.2.4.1.9-.3 1.1l-2.1 1.2c-.4.2-.9.1-1.1-.3-.2-.4-.1-.9.3-1.1l2.1-1.2z" opacity=".2"><animate attributeName="opacity" attributeType="CSS" begin="0.08s" dur="0.96s" from="1" repeatCount="indefinite" to=".15"/></path><path d="M3.2 7.2c.4 0 .8.4.8.8s-.4.8-.8.8H.8C.4 8.8 0 8.4 0 8s.4-.8.8-.8h2.4z" opacity=".25"><animate attributeName="opacity" attributeType="CSS" begin="0.16s" dur="0.96s" from="1" repeatCount="indefinite" to=".15"/></path><path d="M1.4 5.1C1 4.9.8 4.4 1.1 4c.2-.4.7-.5 1.1-.3l2.1 1.2c.3.2.5.7.2 1.1-.2.4-.7.5-1.1.3l-2-1.2z" opacity=".35"><animate attributeName="opacity" attributeType="CSS" begin="0.24s" dur="0.96s" from="1" repeatCount="indefinite" to=".15"/></path><path d="M3.7 2.2c-.2-.4-.1-.9.3-1.1.4-.2.9-.1 1.1.3l1.2 2.1c.2.3.1.8-.3 1-.4.3-.9.1-1.1-.3l-1.2-2z" opacity=".45"><animate attributeName="opacity" attributeType="CSS" begin="0.32s" dur="0.96s" from="1" repeatCount="indefinite" to=".15"/></path><path d="M8.8 3.2c0 .4-.4.8-.8.8s-.8-.4-.8-.8V.8c0-.4.4-.8.8-.8s.8.4.8.8v2.4z" opacity=".5"><animate attributeName="opacity" attributeType="CSS" begin="0.40s" dur="0.96s" from="1" repeatCount="indefinite" to=".15"/></path><path d="M10.9 1.4c.2-.4.7-.6 1.1-.3.4.2.5.7.3 1.1l-1.2 2.1c-.2.4-.7.5-1.1.3-.4-.3-.5-.8-.3-1.2l1.2-2z" opacity=".55"><animate attributeName="opacity" attributeType="CSS" begin="0.48s" dur="0.96s" from="1" repeatCount="indefinite" to=".15"/></path><path d="M13.8 3.7c.4-.2.9-.1 1.1.3.2.4.1.9-.3 1.1l-2.1 1.2c-.4.2-.9.1-1.1-.3-.2-.4-.1-.9.3-1.1l2.1-1.2z" opacity=".6"><animate attributeName="opacity" attributeType="CSS" begin="0.56s" dur="0.96s" from="1" repeatCount="indefinite" to=".15"/></path><path d="M15.2 7.2c.4 0 .8.4.8.8s-.4.8-.8.8h-2.4c-.4 0-.8-.4-.8-.8s.4-.8.8-.8h2.4z" opacity=".65"><animate attributeName="opacity" attributeType="CSS" begin="0.64s" dur="0.96s" from="1" repeatCount="indefinite" to=".15"/></path><path d="M11.8 11.1c-.4-.2-.5-.7-.3-1.1.2-.4.7-.5 1.1-.3l2.1 1.2c.4.2.5.7.3 1.1-.2.4-.7.5-1.1.3l-2.1-1.2z" opacity=".7"><animate attributeName="opacity" attributeType="CSS" begin="0.70s" dur="0.96s" from="1" repeatCount="indefinite" to=".15"/></path><path d="M9.7 12.6c-.2-.4-.1-.9.3-1.1.4-.2.9-.1 1.1.3l1.2 2.1c.2.4.1.9-.3 1.1-.4.2-.9.1-1.1-.3l-1.2-2.1z" opacity=".8"><animate attributeName="opacity" attributeType="CSS" begin="0.78s" dur="0.96s" from="1" repeatCount="indefinite" to=".15"/></path><path d="M8.8 15.2c0 .4-.4.8-.8.8s-.8-.4-.8-.8v-2.4c0-.4.4-.8.8-.8s.8.4.8.8v2.4z"><animate attributeName="opacity" attributeType="CSS" begin="0.86s" dur="0.96s" from="1" repeatCount="indefinite" to=".15"/></path></g><path fill="#1BAADA" fill-rule="evenodd" d="M8 8.7c-1.5 0-2.6-.5-2.6-.5S5.9 10 8 10s2.6-1.9 2.6-1.9-1.1.6-2.6.6zM9.3 6c.4 0 .7.3.7.7s-.3.7-.7.7-.7-.3-.7-.7.3-.7.7-.7zM6.7 6c.4 0 .7.3.7.7s-.3.7-.7.7-.7-.3-.7-.7.3-.7.7-.7z" clip-rule="evenodd"/></svg>