<svg xmlns="http://www.w3.org/2000/svg" xmlns:xlink="http://www.w3.org/1999/xlink" width="67" height="28" version="1.1" viewBox="0 0 67 28"><g id="Page-1" fill="none" fill-rule="evenodd" stroke="none" stroke-width="1"><g id="Rectangle-1264-+-Shape"><path id="Rectangle-1264" fill="#FFF" d="M2,14 C2,7.372583 7.37049212,2 13.9962035,2 L52.9937982,2 C59.6191184,2 64.9900017,7.37112582 64.9900017,14 C64.9900017,20.627417 59.6195096,26 52.9937982,26 L13.9962035,26 C7.37088326,26 2,20.6288742 2,14 Z M32.994984,7.28907739 L32.994984,21.2024677 L33.9950177,21.2024677 L33.9950177,7.28907739 L32.994984,7.28907739 Z" opacity=".95"/><path id="Shape" fill="#4A4A4A" fill-opacity=".2" d="M2,14 L2,14 C2,20.6288742 7.37173577,26 13.9981077,26 L53.0018923,26 C59.6286554,26 65,20.627417 65,14 L65,14 C65,7.37112582 59.6282642,2 53.0018923,2 L13.9981077,2 C7.37134457,2 2,7.372583 2,14 L2,14 Z M0,14 L0,14 C0,6.26795905 6.26682948,0 13.9981077,0 L53.0018923,0 C60.73337,0 67,6.26709264 67,14 C67,21.7320409 60.7331705,28 53.0018923,28 L13.9981077,28 C6.26662998,28 0,21.7329074 0,14 L0,14 Z"/></g></g></svg>